<svg width="703" height="168" viewBox="0 0 703 168" fill="none" xmlns="http://www.w3.org/2000/svg">
<path d="M305.996 80.7125V88.4482C305.996 102.776 301.415 114.376 292.246 123.256C283.078 132.135 271.235 136.578 256.723 136.578C241.251 136.578 228.429 131.543 218.261 121.468C208.087 111.392 203 99.0955 203 84.5771C203 70.0587 208.034 57.604 218.116 47.4759C228.185 37.3544 240.673 32.2937 255.573 32.2937C264.932 32.2937 273.482 34.4232 281.218 38.6689C288.119 42.4612 293.646 47.3708 297.813 53.4042C298.635 54.5938 298.247 56.2369 296.992 56.9533L284.399 64.2092C283.301 64.8402 281.895 64.5576 281.159 63.5257C278.819 60.2592 275.618 57.5317 271.543 55.3562C266.719 52.7798 261.35 51.4917 255.428 51.4917C245.878 51.4917 238.024 54.6201 231.866 60.877C225.708 67.1339 222.625 75.034 222.625 84.5836C222.625 94.1333 225.754 101.843 232.011 108.008C238.267 114.166 246.549 117.248 256.867 117.248C264.504 117.248 270.834 115.553 275.848 112.161C280.863 108.77 284.274 104.117 286.088 98.1951H258.202C256.828 98.1951 255.717 97.0843 255.717 95.7107V83.2034C255.717 81.8298 256.828 80.7191 258.202 80.7191H305.996V80.7125Z" fill="white"/>
<path d="M319.173 132.089V32.4844C319.173 31.1107 320.284 30 321.658 30H335.171C336.544 30 337.655 31.1107 337.655 32.4844V132.089C337.655 133.463 336.544 134.573 335.171 134.573H321.658C320.284 134.573 319.173 133.463 319.173 132.089Z" fill="white"/>
<path d="M403.057 62.9475H417.477C419.199 62.9475 420.402 64.6629 419.81 66.2797L394.908 134.685C391.181 144.912 386.245 152.345 380.093 156.979C374.5 161.192 367.665 163.295 359.588 163.282C358.227 163.282 357.129 162.158 357.129 160.797V148.461C357.129 147.153 358.142 146.062 359.45 145.983C363.34 145.753 366.502 144.715 368.947 142.874C371.858 140.679 374.178 137.143 375.894 132.273L347.987 66.3914C347.291 64.7549 348.493 62.9409 350.275 62.9409H365.023C366.048 62.9409 366.968 63.5719 367.336 64.5249L385.397 111.084L400.678 64.6497C401.013 63.631 401.966 62.9409 403.038 62.9409L403.057 62.9475Z" fill="white"/>
<path d="M471.456 60.9429C481.098 60.9429 489.34 64.5971 496.168 71.899C502.997 79.2075 506.408 88.1591 506.408 98.7604C506.408 109.362 502.991 118.313 496.168 125.622C489.34 132.93 481.105 136.578 471.456 136.578C461.808 136.578 453.691 133.095 448.249 126.121V160.738C448.249 162.112 447.138 163.222 445.765 163.222H432.252C430.878 163.222 429.768 162.112 429.768 160.738V65.4318C429.768 64.0582 430.878 62.9474 432.252 62.9474H445.765C447.138 62.9474 448.249 64.0582 448.249 65.4318V71.3995C453.691 64.4262 461.427 60.9429 471.456 60.9429ZM453.836 113.305C457.562 117.078 462.288 118.964 468.019 118.964C473.75 118.964 478.502 117.078 482.274 113.305C486.047 109.533 487.933 104.689 487.933 98.767C487.933 92.8452 486.047 88.0014 482.274 84.2288C478.502 80.4563 473.75 78.57 468.019 78.57C462.288 78.57 457.562 80.4563 453.836 84.2288C450.109 88.0014 448.249 92.8518 448.249 98.767C448.249 104.682 450.109 109.533 453.836 113.305Z" fill="white"/>
<path d="M559.263 60.9428C567.091 60.9428 573.565 63.5718 578.672 68.8231C583.779 74.0744 586.335 81.3369 586.335 90.5974V132.089C586.335 133.463 585.224 134.573 583.851 134.573H570.338C568.964 134.573 567.854 133.463 567.854 132.089V92.8846C567.854 88.1131 566.565 84.4588 563.982 81.9285C561.406 79.3981 557.969 78.1296 553.67 78.1296C548.892 78.1296 545.074 79.6084 542.208 82.5725C539.343 85.5367 537.91 89.9731 537.91 95.8948V132.089C537.91 133.463 536.799 134.573 535.425 134.573H521.913C520.539 134.573 519.428 133.463 519.428 132.089V36.7827C519.428 35.4091 520.539 34.2983 521.913 34.2983H535.425C536.799 34.2983 537.91 35.4091 537.91 36.7827V70.9723C542.399 64.2882 549.517 60.9428 559.257 60.9428H559.263Z" fill="white"/>
<path d="M611.264 54.3507C608.208 54.3507 605.559 53.2268 603.311 50.9856C601.064 48.7445 599.946 46.0958 599.946 43.033C599.946 39.9703 601.07 37.3019 603.311 35.0082C605.553 32.7144 608.201 31.5708 611.264 31.5708C614.327 31.5708 617.113 32.7144 619.355 35.0082C621.596 37.3019 622.72 39.9769 622.72 43.033C622.72 46.0892 621.596 48.7379 619.355 50.9856C617.107 53.2334 614.412 54.3507 611.264 54.3507ZM602.095 132.089V65.4318C602.095 64.0581 603.206 62.9474 604.58 62.9474H618.093C619.466 62.9474 620.577 64.0581 620.577 65.4318V132.089C620.577 133.463 619.466 134.573 618.093 134.573H604.58C603.206 134.573 602.095 133.463 602.095 132.089Z" fill="white"/>
<path d="M671.572 136.578C660.78 136.578 651.776 132.95 644.566 125.694C637.356 118.438 633.748 109.46 633.748 98.7604C633.748 88.0605 637.349 79.0892 644.566 71.8267C651.776 64.5708 660.773 60.9363 671.572 60.9363C678.545 60.9363 684.894 62.6057 690.625 65.951C695.574 68.8363 699.485 72.576 702.37 77.1701C703.119 78.3663 702.751 79.9436 701.535 80.66L689.922 87.4624C688.772 88.1328 687.326 87.7648 686.576 86.6606C685.223 84.656 683.441 82.9998 681.246 81.705C678.335 79.9831 675.062 79.1287 671.434 79.1287C665.893 79.1287 661.312 80.9689 657.684 84.6429C654.056 88.3234 652.242 93.0227 652.242 98.7538C652.242 104.485 654.056 109.046 657.684 112.72C661.312 116.401 665.9 118.234 671.434 118.234C675.16 118.234 678.473 117.4 681.391 115.73C683.599 114.462 685.38 112.825 686.741 110.821C687.477 109.73 688.916 109.355 690.06 110.012L701.739 116.69C702.968 117.393 703.382 118.997 702.606 120.18C699.577 124.794 695.587 128.56 690.632 131.491C684.9 134.882 678.552 136.578 671.578 136.578H671.572Z" fill="white"/>
<path d="M164.561 71.6448H83.9574C72.9727 71.6448 67.4727 84.9218 75.2425 92.6913L95.8794 113.327C91.5258 115.093 86.6919 115.93 81.6257 115.55C66.0163 114.404 53.4281 101.723 52.4133 86.107C51.2126 67.6632 65.8149 52.3257 84.0039 52.3257C89.1554 52.3257 94.0202 53.5574 98.3195 55.7418C102.619 57.9262 107.522 59.2896 112.457 59.2896H113.743C121.691 59.2896 129.314 56.1291 134.938 50.5131L149.703 35.7488C150.741 34.7108 150.826 33.0609 149.919 31.9067C145.86 26.7787 141.212 22.1309 136.084 18.0719C134.93 17.1579 133.28 17.2508 132.242 18.2888L110.854 39.6761C108.437 42.093 104.811 42.8056 101.658 41.4965C101.627 41.481 101.589 41.4655 101.558 41.45C98.4048 40.1487 96.3519 37.0734 96.3519 33.6651V3.43157C96.3519 1.96754 95.2519 0.735891 93.7878 0.565474C90.5807 0.193655 87.3117 0 84.0039 0C80.6961 0 77.427 0.193655 74.2199 0.565474C72.7636 0.735891 71.6558 1.96754 71.6558 3.43157V33.6806C71.6558 37.0889 69.603 40.1641 66.4501 41.4655C66.4191 41.481 66.3804 41.4965 66.3494 41.512C63.1966 42.8211 59.5712 42.1084 57.1542 39.6916L35.7659 18.3043C34.7279 17.2663 33.0779 17.1811 31.9236 18.0874C26.7954 22.1464 22.1475 26.7942 18.0883 31.9222C17.1742 33.0764 17.2671 34.7263 18.3052 35.7643L39.6935 57.1516C42.1104 59.5684 42.8231 63.1937 41.5139 66.3464C41.4984 66.3774 41.4829 66.4161 41.4674 66.4471C40.166 69.5998 37.0906 71.6525 33.6821 71.6525H3.43173C1.96763 71.6525 0.735925 72.7525 0.5655 74.2165C0.193664 77.4235 0 80.6924 0 84C0 87.3076 0.193664 90.5765 0.5655 93.7835C0.735925 95.2398 1.96763 96.3475 3.43173 96.3475H33.6821C37.0906 96.3475 40.166 98.4002 41.4674 101.553C41.4829 101.584 41.4984 101.623 41.5139 101.654C42.8231 104.806 42.1104 108.432 39.6935 110.848L18.3052 132.236C17.2671 133.274 17.1819 134.924 18.0883 136.078C22.1475 141.206 26.7954 145.854 31.9236 149.913C33.0779 150.827 34.7279 150.734 35.7659 149.696L57.1542 128.308C59.5712 125.892 63.1966 125.179 66.3494 126.488C66.3804 126.503 66.4191 126.519 66.4501 126.534C69.603 127.836 71.6558 130.911 71.6558 134.319V164.568C71.6558 166.032 72.7558 167.264 74.2199 167.435C77.427 167.806 80.6961 168 84.0039 168C87.3117 168 90.5807 167.806 93.7878 167.435C95.2442 167.264 96.3519 166.032 96.3519 164.568V134.319C96.3519 130.911 98.4048 127.836 101.558 126.534C101.589 126.519 101.627 126.504 101.658 126.496C104.811 125.187 108.437 125.899 110.854 128.316L132.242 149.703C133.28 150.741 134.93 150.827 136.084 149.92C141.22 145.861 145.868 141.214 149.927 136.078C150.834 134.931 150.756 133.289 149.718 132.251C143.653 126.17 124.1 106.572 124.108 106.557L113.813 96.3552H164.568C166.032 96.3552 167.264 95.2553 167.435 93.7912C167.806 90.5843 168 87.3154 168 84.0077C168 80.7001 167.806 77.4312 167.435 74.2243C167.264 72.768 166.032 71.6603 164.568 71.6603L164.561 71.6448Z" fill="#FFC267"/>
</svg>
